<svg xmlns="http://www.w3.org/2000/svg" version="1.1" xmlns:xlink="http://www.w3.org/1999/xlink" xmlns:svgjs="http://svgjs.dev/svgjs" width="1000" height="1000" viewBox="0 0 1000 1000"><rect width="1000" height="1000" fill="#ffffff"></rect><g transform="matrix(0.7,0,0,0.7,149.57575757701096,423.1798413396558)"><svg viewBox="0 0 396 87" data-background-color="#ffffff" preserveAspectRatio="xMidYMid meet" height="219" width="1000" xmlns="http://www.w3.org/2000/svg" xmlns:xlink="http://www.w3.org/1999/xlink"><g id="tight-bounds" transform="matrix(1,0,0,1,0.2400000007090739,0.0965675371816701)"><svg viewBox="0 0 395.52 86.80686492563666" height="86.80686492563666" width="395.52"><g><svg viewBox="0 0 520.2131391012164 114.17392723124172" height="86.80686492563666" width="395.52"><g transform="matrix(1,0,0,1,0,15.779464617342384)"><svg viewBox="0 0 395.52 82.61499799655695" height="82.61499799655695" width="395.52"><g><svg viewBox="0 0 395.52 82.61499799655695" height="82.61499799655695" width="395.52"><g><svg viewBox="0 0 395.52 44.55858227848101" height="44.55858227848101" width="395.52"><g transform="matrix(1,0,0,1,0,0)"><svg width="395.52" viewBox="0.10000000149011612 -35.29999923706055 315.97998046875 35.599998474121094" height="44.55858227848101" data-palette-color="#fce44d"><path d="M31.85 0L27.65-9.35 8.15-9.35 3.95 0 0.1 0 16.1-35 19.75-35 35.75 0 31.85 0ZM9.5-12.35L26.3-12.35 17.9-31.15 9.5-12.35ZM65.1-35L68.85-35 53.35 0 49.7 0 34.2-35 38.2-35 51.6-4.6 65.1-35ZM99 0L94.8-9.35 75.3-9.35 71.1 0 67.25 0 83.25-35 86.9-35 102.9 0 99 0ZM76.65-12.35L93.45-12.35 85.05-31.15 76.65-12.35ZM108.69 0L108.69-35 112.39-35 112.39-3.2 131.99-3.2 131.99 0 108.69 0ZM164.39 0L160.19-9.35 140.69-9.35 136.49 0 132.64 0 148.64-35 152.29-35 168.29 0 164.39 0ZM142.04-12.35L158.84-12.35 150.44-31.15 142.04-12.35ZM199.69-35L203.34-35 203.34 0 200.29 0 177.79-28.4 177.79 0 174.09 0 174.09-35 177.14-35 199.69-6.6 199.69-35ZM229.94 0.3Q224.73 0.3 220.56-2 216.38-4.3 214.01-8.38 211.63-12.45 211.63-17.5L211.63-17.5Q211.63-22.55 214.01-26.63 216.38-30.7 220.59-33 224.78-35.3 229.99-35.3L229.99-35.3Q233.88-35.3 237.19-34 240.49-32.7 242.78-30.2L242.78-30.2 240.44-27.85Q236.34-32 230.09-32L230.09-32Q225.94-32 222.53-30.1 219.13-28.2 217.21-24.9 215.28-21.6 215.28-17.5L215.28-17.5Q215.28-13.4 217.21-10.1 219.13-6.8 222.53-4.9 225.94-3 230.09-3L230.09-3Q236.38-3 240.44-7.2L240.44-7.2 242.78-4.85Q240.49-2.35 237.16-1.03 233.84 0.3 229.94 0.3L229.94 0.3ZM276.28-35L279.93-35 279.93 0 276.28 0 276.28-16.15 254.38-16.15 254.38 0 250.68 0 250.68-35 254.38-35 254.38-19.4 276.28-19.4 276.28-35ZM295.03-3.2L316.08-3.2 316.08 0 291.33 0 291.33-35 315.33-35 315.33-31.8 295.03-31.8 295.03-19.35 313.13-19.35 313.13-16.2 295.03-16.2 295.03-3.2Z" opacity="1" transform="matrix(1,0,0,1,0,0)" fill="#000000" class="undefined-text-0" data-fill-palette-color="primary" id="text-0"></path></svg></g></svg></g><g transform="matrix(1,0,0,1,273.1734969970266,55.077794148455695)"><svg viewBox="0 0 122.3465030029734 27.537203848101264" height="27.537203848101264" width="122.3465030029734"><g transform="matrix(1,0,0,1,0,0)"><svg width="122.3465030029734" viewBox="1.149999976158142 -36.75 165.48001098632812 37.25" height="27.537203848101264" data-palette-color="#fce44d"><path d="M13.6-36.75L13.6-36.75Q15-36.75 16.03-36.4 17.05-36.05 17.65-35.4L17.65-35.4 16.95-33.4Q16.3-34 15.55-34.25 14.8-34.5 13.8-34.5L13.8-34.5Q11.35-34.5 10-33.1 8.65-31.7 8.65-28.95L8.65-28.95 8.65-25 8.65-24.1 8.65 0 6.15 0 6.15-29.2Q6.15-30.9 6.63-32.3 7.1-33.7 8.05-34.68 9-35.65 10.4-36.2 11.8-36.75 13.6-36.75ZM1.15-25L17.45-25 17.45-22.85 1.15-22.85 1.15-25ZM37.7-8.8L37.7-16.45Q37.7-19.7 35.95-21.5 34.2-23.3 30.95-23.3L30.95-23.3Q28.1-23.3 26.05-22.08 24-20.85 23-18L23-18 20.95-19.3Q22.05-22.25 24.62-23.88 27.2-25.5 31-25.5L31-25.5Q33.75-25.5 35.82-24.53 37.9-23.55 39.05-21.65 40.2-19.75 40.2-16.9L40.2-16.9 40.2-4.4Q40.2-1.75 42.6-1.75L42.6-1.75Q43.65-1.75 44.4-2.1L44.4-2.1 44.25-0.1Q43.4 0.35 42.05 0.35L42.05 0.35Q40.9 0.35 39.9-0.1 38.9-0.55 38.27-1.6 37.65-2.65 37.65-4.45L37.65-4.45 37.65-5.8 38.35-5.85Q37.9-3.7 36.37-2.27 34.85-0.85 32.85-0.18 30.85 0.5 28.85 0.5L28.85 0.5Q26.5 0.5 24.65-0.25 22.8-1 21.75-2.43 20.7-3.85 20.7-5.95L20.7-5.95Q20.7-8.75 22.57-10.48 24.45-12.2 27.85-12.85L27.85-12.85 38.2-14.9 38.2-12.8 29.1-11Q26.15-10.4 24.7-9.25 23.25-8.1 23.25-6.15L23.25-6.15Q23.25-4.05 24.8-2.88 26.35-1.7 29.2-1.7L29.2-1.7Q30.65-1.7 32.15-2.1 33.65-2.5 34.92-3.38 36.2-4.25 36.95-5.58 37.7-6.9 37.7-8.8L37.7-8.8ZM57.99 0.5L57.99 0.5Q54.2 0.5 51.27-1.05 48.34-2.6 47.14-5.5L47.14-5.5 49.3-6.95Q50.2-4.45 52.52-3.08 54.84-1.7 58.2-1.7L58.2-1.7Q61.5-1.7 63.37-3 65.25-4.3 65.25-6.45L65.25-6.45Q65.25-7.9 64.32-8.97 63.39-10.05 60.84-10.6L60.84-10.6 54.99-11.85Q51.45-12.6 49.89-14.28 48.34-15.95 48.34-18.35L48.34-18.35Q48.34-20.35 49.55-21.95 50.74-23.55 52.87-24.53 54.99-25.5 57.84-25.5L57.84-25.5Q61.59-25.5 64.05-24.03 66.5-22.55 67.5-19.6L67.5-19.6 65.39-18.25Q64.64-20.9 62.62-22.1 60.59-23.3 57.84-23.3L57.84-23.3Q55.74-23.3 54.17-22.68 52.59-22.05 51.72-20.98 50.84-19.9 50.84-18.5L50.84-18.5Q50.84-17.05 51.84-15.88 52.84-14.7 55.39-14.15L55.39-14.15 61.39-12.85Q64.94-12.1 66.34-10.58 67.75-9.05 67.75-6.8L67.75-6.8Q67.75-4.6 66.55-2.93 65.34-1.25 63.14-0.38 60.95 0.5 57.99 0.5ZM77.29 0L74.79 0 74.79-36.5 77.29-36.5 77.29-19.9Q78.39-22.55 80.84-24.03 83.29-25.5 86.49-25.5L86.49-25.5Q89.29-25.5 91.44-24.48 93.59-23.45 94.82-21.38 96.04-19.3 96.04-16.25L96.04-16.25 96.04 0 93.54 0 93.54-15.45Q93.54-19.5 91.52-21.43 89.49-23.35 86.24-23.35L86.24-23.35Q83.89-23.35 81.87-22.25 79.84-21.15 78.57-19.1 77.29-17.05 77.29-14.1L77.29-14.1 77.29 0ZM105.94-29.85L105.94-29.85Q104.99-29.85 104.42-30.43 103.84-31 103.84-31.95L103.84-31.95Q103.84-32.9 104.42-33.48 104.99-34.05 105.94-34.05L105.94-34.05Q106.89-34.05 107.47-33.48 108.04-32.9 108.04-31.95L108.04-31.95Q108.04-31 107.47-30.43 106.89-29.85 105.94-29.85ZM104.69-25L107.19-25 107.19 0 104.69 0 104.69-25ZM126.34-25.5L126.34-25.5Q129.84-25.5 132.51-23.95 135.19-22.4 136.71-19.48 138.24-16.55 138.24-12.5L138.24-12.5Q138.24-8.45 136.71-5.53 135.19-2.6 132.51-1.05 129.84 0.5 126.34 0.5L126.34 0.5Q122.84 0.5 120.16-1.05 117.49-2.6 115.96-5.53 114.44-8.45 114.44-12.5L114.44-12.5Q114.44-16.55 115.96-19.48 117.49-22.4 120.16-23.95 122.84-25.5 126.34-25.5ZM126.34-23.35L126.34-23.35Q123.49-23.35 121.39-22.05 119.29-20.75 118.11-18.32 116.94-15.9 116.94-12.5L116.94-12.5Q116.94-9.15 118.11-6.7 119.29-4.25 121.39-2.95 123.49-1.65 126.34-1.65L126.34-1.65Q129.19-1.65 131.29-2.95 133.39-4.25 134.56-6.7 135.74-9.15 135.74-12.5L135.74-12.5Q135.74-15.9 134.56-18.32 133.39-20.75 131.29-22.05 129.19-23.35 126.34-23.35ZM147.88 0L145.38 0 145.38-25 147.63-25 147.84-18.75 147.44-19.1Q148.13-21.15 149.53-22.6 150.94-24.05 152.88-24.78 154.84-25.5 157.09-25.5L157.09-25.5Q159.88-25.5 162.03-24.45 164.19-23.4 165.41-21.35 166.63-19.3 166.63-16.2L166.63-16.2 166.63 0 164.13 0 164.13-15.4Q164.13-19.5 162.11-21.4 160.09-23.3 156.84-23.3L156.84-23.3Q154.49-23.3 152.46-22.23 150.44-21.15 149.16-19.1 147.88-17.05 147.88-14.1L147.88-14.1 147.88 0Z" opacity="1" transform="matrix(1,0,0,1,0,0)" fill="#000000" class="undefined-text-1" data-fill-palette-color="secondary" id="text-1"></path></svg></g></svg></g></svg></g></svg></g><g transform="matrix(1,0,0,1,406.0392118699747,0)"><svg viewBox="0 0 114.17392723124172 114.17392723124172" height="114.17392723124172" width="114.17392723124172"><g data-palette-color="#fce44d"><rect width="31.20754010987274" height="114.17392723124172" fill="#000000" stroke="transparent" data-fill-palette-color="accent" x="0" fill-opacity="1"></rect><rect width="31.20754010987274" height="114.17392723124172" fill="#000000" stroke="transparent" data-fill-palette-color="accent" x="38.05797574374724" fill-opacity="0.75"></rect><rect width="31.20754010987274" height="114.17392723124172" fill="#000000" stroke="transparent" data-fill-palette-color="accent" x="76.11595148749448" fill-opacity="0.5"></rect></g></svg></g></svg></g><defs></defs></svg><rect width="395.52" height="86.80686492563666" fill="none" stroke="none" visibility="hidden"></rect></g></svg></g></svg>