<?xml version="1.0" standalone="no"?>
<!DOCTYPE svg PUBLIC "-//W3C//DTD SVG 20010904//EN"
 "http://www.w3.org/TR/2001/REC-SVG-20010904/DTD/svg10.dtd">
<svg version="1.0" xmlns="http://www.w3.org/2000/svg"
 width="300.000000pt" height="300.000000pt" viewBox="0 0 300.000000 300.000000"
 preserveAspectRatio="xMidYMid meet">

<g transform="translate(0.000000,300.000000) scale(0.100000,-0.100000)"
fill="#000000" stroke="none">
<path d="M1315 2084 c-105 -181 -174 -309 -168 -315 5 -5 118 -10 253 -11
l244 -3 32 -55 c18 -30 33 -58 34 -62 0 -5 -94 -8 -210 -8 -115 0 -210 3 -210
8 0 4 9 21 20 37 24 37 25 45 2 45 -10 0 -29 -19 -44 -45 l-28 -45 -86 0
c-100 0 -146 -17 -175 -64 -23 -37 -24 -67 -5 -104 27 -52 48 -63 117 -60 l62
3 43 72 c23 39 40 74 36 77 -15 16 -34 0 -67 -59 -35 -63 -37 -65 -76 -65 -79
0 -118 82 -64 135 l24 25 345 0 344 0 54 -95 53 -95 63 0 c57 0 67 3 93 29 24
24 29 38 29 76 0 87 -50 125 -165 125 -63 0 -65 -1 -55 -20 9 -17 21 -20 74
-20 76 0 104 -18 112 -72 5 -31 2 -41 -20 -63 -21 -21 -34 -26 -67 -23 l-42 3
-178 310 c-98 171 -183 310 -190 310 -6 0 -44 -56 -83 -125 l-72 -125 -73 -3
c-62 -2 -73 -1 -68 12 3 8 71 128 150 266 l145 250 151 -260 c83 -143 151
-262 151 -265 0 -2 -19 -5 -42 -7 -30 -2 -43 -8 -43 -18 0 -12 15 -16 68 -18
57 -2 67 -1 67 14 0 19 -340 614 -351 614 -4 0 -87 -138 -184 -306z m244 -185
c29 -50 50 -93 48 -95 -2 -3 -54 -3 -114 -2 l-111 3 56 97 c31 53 59 95 63 93
3 -3 30 -46 58 -96z"/>
<path d="M702 1108 c-11 -29 -29 -77 -41 -105 -21 -53 -21 -53 -1 -53 12 0 25
10 32 25 9 21 18 25 53 25 35 0 44 -4 53 -25 7 -15 20 -25 32 -25 20 0 20 0
-1 53 -12 28 -30 76 -41 105 -17 41 -25 52 -43 52 -18 0 -26 -11 -43 -52z m68
-65 c0 -7 -11 -13 -25 -13 -28 0 -30 4 -13 51 l12 34 12 -30 c7 -17 13 -36 14
-42z"/>
<path d="M854 1142 c4 -11 22 -57 40 -103 25 -61 39 -85 54 -87 19 -3 27 12
100 196 3 10 -2 13 -18 10 -18 -2 -28 -18 -49 -70 -14 -38 -29 -68 -32 -68 -3
0 -17 30 -31 68 -19 53 -29 68 -47 70 -19 3 -22 0 -17 -16z"/>
<path d="M1112 1108 c-11 -29 -29 -77 -41 -105 -21 -53 -21 -53 -1 -53 12 0
25 10 32 25 9 21 18 25 53 25 35 0 44 -4 53 -25 7 -15 20 -25 32 -25 20 0 20
0 -1 53 -12 28 -30 76 -41 105 -17 41 -25 52 -43 52 -18 0 -26 -11 -43 -52z
m68 -65 c0 -7 -11 -13 -25 -13 -28 0 -30 4 -13 51 l12 34 12 -30 c7 -17 13
-36 14 -42z"/>
<path d="M1280 1055 l0 -105 85 0 c82 0 85 1 91 25 5 22 12 25 50 25 38 0 46
-4 54 -25 6 -16 17 -25 31 -25 13 0 19 5 16 13 -73 184 -79 197 -101 197 -18
0 -28 -16 -60 -102 -22 -57 -41 -97 -44 -90 -2 7 -21 12 -43 12 l-39 0 0 90
c0 83 -1 90 -20 90 -19 0 -20 -7 -20 -105z m248 8 c11 -32 10 -33 -20 -33 -23
0 -29 3 -24 16 3 9 9 27 12 41 8 28 17 21 32 -24z"/>
<path d="M1630 1055 c0 -98 1 -105 20 -105 17 0 19 8 22 65 l3 65 50 -64 c28
-36 58 -65 68 -66 15 0 17 12 17 105 0 98 -1 105 -20 105 -17 0 -19 -8 -22
-67 l-3 -67 -50 67 c-27 36 -58 66 -67 67 -16 0 -18 -11 -18 -105z"/>
<path d="M1869 1131 c-65 -65 -21 -181 68 -181 45 1 83 24 66 41 -8 8 -17 8
-32 -1 -43 -22 -91 12 -91 65 0 53 48 87 91 65 15 -8 24 -9 32 -1 19 19 -12
41 -60 41 -36 0 -50 -6 -74 -29z"/>
<path d="M2040 1055 c0 -98 1 -105 20 -105 17 0 20 7 20 45 l0 45 50 0 50 0 0
-45 c0 -38 3 -45 20 -45 19 0 20 7 20 105 0 97 -1 105 -19 105 -16 0 -20 -8
-23 -42 l-3 -43 -47 -3 -48 -3 0 45 c0 39 -3 46 -20 46 -19 0 -20 -7 -20 -105z"/>
<path d="M2260 1055 l0 -105 65 0 c51 0 65 3 65 15 0 11 -12 15 -45 15 -43 0
-45 1 -45 30 0 28 3 30 35 30 24 0 35 5 35 15 0 10 -11 15 -35 15 -32 0 -35 2
-35 30 0 29 2 30 45 30 33 0 45 4 45 15 0 12 -14 15 -65 15 l-65 0 0 -105z"/>
<path d="M970 725 c0 -40 2 -45 23 -45 44 0 62 43 31 74 -8 9 -24 16 -35 16
-16 0 -19 -7 -19 -45z m53 13 c8 -12 7 -21 -2 -32 -23 -28 -41 -19 -41 20 0
28 4 35 16 32 9 -2 22 -10 27 -20z"/>
<path d="M1081 723 c1 -27 3 -40 6 -30 6 21 12 21 35 0 10 -9 18 -11 18 -5 0
6 -5 14 -10 17 -8 5 -7 11 1 21 15 18 -4 44 -32 44 -16 0 -19 -7 -18 -47z m39
16 c0 -5 -7 -9 -15 -9 -15 0 -20 12 -9 23 8 8 24 -1 24 -14z"/>
<path d="M1247 763 c-11 -10 -8 -83 3 -83 6 0 10 6 10 14 0 8 9 18 20 21 24 8
27 40 4 49 -20 8 -29 8 -37 -1z m38 -23 c0 -7 -6 -15 -12 -17 -8 -3 -13 4 -13
17 0 13 5 20 13 18 6 -3 12 -11 12 -18z"/>
<path d="M1393 725 c0 -27 2 -38 4 -22 2 15 2 37 0 50 -2 12 -4 0 -4 -28z"/>
<path d="M1451 725 l1 -50 8 40 c5 22 4 44 -1 50 -5 5 -9 -11 -8 -40z"/>
<path d="M1510 738 c0 -30 0 -31 -20 -13 -29 26 -24 3 5 -25 l25 -23 0 46 c0
26 -2 47 -5 47 -3 0 -5 -14 -5 -32z"/>
<path d="M1622 758 c-17 -17 -15 -65 4 -72 22 -9 44 -7 44 2 0 5 -10 8 -22 8
-17 -1 -24 5 -26 23 -4 28 14 43 43 35 16 -4 17 -3 5 5 -20 14 -33 14 -48 -1z"/>
<path d="M1722 728 c-2 -44 0 -48 21 -47 16 1 17 3 5 6 -12 3 -18 17 -21 46
l-4 42 -1 -47z"/>
<path d="M1812 730 c-11 -25 -17 -47 -14 -50 2 -3 7 1 9 8 3 6 15 12 28 12 13
0 26 -6 29 -12 3 -7 3 -2 0 12 -4 14 -12 36 -19 50 l-13 25 -20 -45z m26 -19
c-15 -5 -19 4 -11 24 6 18 7 18 13 -1 4 -10 3 -21 -2 -23z"/>
<path d="M1913 759 c-14 -14 -6 -39 13 -39 8 0 14 -7 14 -16 0 -11 -6 -15 -20
-11 -11 3 -18 1 -14 -4 9 -15 41 -10 48 7 8 20 -1 34 -20 34 -8 0 -14 7 -14
16 0 10 5 14 16 10 8 -3 12 -2 9 4 -8 13 -18 13 -32 -1z"/>
<path d="M2000 755 c-14 -16 -6 -35 16 -35 8 0 14 -7 14 -16 0 -12 -6 -15 -21
-11 -16 4 -19 3 -11 -5 14 -14 42 -3 42 16 0 9 -9 20 -20 26 -23 12 -17 35 7
26 8 -3 11 -1 8 4 -9 14 -21 12 -35 -5z"/>
<path d="M1180 720 c0 -22 5 -40 10 -40 6 0 10 18 10 40 0 22 -4 40 -10 40 -5
0 -10 -18 -10 -40z"/>
</g>
</svg>
